<svg xmlns="http://www.w3.org/2000/svg" viewBox="0 0 380.49 130.46"><title>Asset 2</title><path d="M88.69,1a1.85,1.85,0,0,0-.77.77s0,0,0,.31,0,.4.62.77.64.74.77,1.85-.83,1.51-.93,2.16.13,1.44.93,1.39,1.17-.77,1.39-1.54,1-1.07,1.7-1.39a1.92,1.92,0,0,0,1.23-1.7c0-.79-.3-.49-2-1.39S90,1.24,89.15,1A.67.67,0,0,0,88.69,1ZM190.56,1V30.68h15.74V27.13H194.88V1ZM231,1V5.36h4.63V1Zm10.65,0V22.19c0,2.57.2,9,7.87,9,5.91,0,8.33-4.2,8.33-10.5,0-5.36-1.29-11-6.95-11a5.76,5.76,0,0,0-5.4,3.24V1Zm44.61,0V5.36h4.63V1ZM72.33,1.81c-.94-.2-2.16,1.54-2.16,1.54L70,3.66c-.28.3-.77.93-.77.93A5.14,5.14,0,0,1,68.93,6c-.49,1.19,0,1.73.15,2.62a22.24,22.24,0,0,1,0,2.62C69,12.42,67.9,14,66.77,14s-1.67.23-2,1.54a3.31,3.31,0,0,0,.31,2.16,4.07,4.07,0,0,1,.15,1.39c0,.87-1,2.11-1.23,3.24a13.06,13.06,0,0,1-1.08,3.4c-.55,1.11.11,2,.15,2.78,0,0,0,4.25,0,6.48,0,1.25.81,1.69,1.39,2.32a7.71,7.71,0,0,0,1.08.93c2.13.49,2.53-.4,2.62-1.23a2.31,2.31,0,0,1,.93-1.85c1.28-.88-.31-3.55-.31-3.55a7.88,7.88,0,0,1-1.08-2.78c-.16-1.35,1.6-1.84,2-2.16,1.51-1.19,1.77-1.75,1.7-2.78s1.53-4.72,1.54-5.4c0-.89.09-5.62.15-7.41a1.64,1.64,0,0,1,.15-.62c0-.61-.29-1.2-.31-1.7-1.23-1.78.8-3.27.77-4.78A2.11,2.11,0,0,0,72.33,1.81Zm45.38,2.93a2.84,2.84,0,0,0-1.85.62c-1.87,1.53-.77,2.47-.77,2.47a1.49,1.49,0,0,1,.15.46c.06.3.1,1.23.15,2.32a9.62,9.62,0,0,1,.15,2.32,5,5,0,0,0-2.32,2,4.57,4.57,0,0,0-.93,2.16,13,13,0,0,0-.15,1.7c0,1.46.71,1.56.62,2.47s-.84,1.64-1.08,2.32a4.16,4.16,0,0,1-.62,1.85c-.43.78-.69,2.18,0,2.93.49.54.4,1.75.31,3.09a2.58,2.58,0,0,0,.62,2.16c.23.22.78.1.93.93a2.81,2.81,0,0,0,2.93,1.7,2.85,2.85,0,0,0,1.54-.93,2.53,2.53,0,0,0,.93-1.7,2,2,0,0,0-.62-1.54,2,2,0,0,1-.77-1.54,3.65,3.65,0,0,0-.77-1.54V23.88a5.24,5.24,0,0,1,.77-1.7V20A2.91,2.91,0,0,1,118,18.64a4,4,0,0,0,.31-2.47c-.08-.71.37-1,.62-1.7a6.11,6.11,0,0,0,.15-2c0-1.14.15-1.15,1.23-2.62.48-1.59.57-3.46-.31-4.17A3.66,3.66,0,0,0,117.71,4.75ZM217.88,9.68c-2.61,0-8.33,1-8.33,9.72,0,8,4,11.73,10.19,11.73a18.9,18.9,0,0,0,5.09-.77V27.28a11,11,0,0,1-3.86.77c-5.58,0-7.56-5.29-7.56-9.11h11.88V17.87C225.29,13.07,222.85,9.68,217.88,9.68Zm56,0c-4.16,0-5.8,3.22-6.48,4.94V10.15h-3.86V30.68h3.86v-8.8c0-4.07,2.23-8.33,5.4-8.33,2.78,0,2.78,2.09,2.78,5.87V30.68h3.86V16.48C279.47,14,278.63,9.68,273.91,9.68Zm-42.45.46V30.68h3.86V10.15Zm55.1,0V30.68h3.86V10.15Zm9.88,0v3.09h9.26l-9.88,14.35v3.09h15V27.59H300.46l9.88-14.51V10.15Zm-78.72,2.62a3.44,3.44,0,0,1,3.7,3.55h-7.72A3.82,3.82,0,0,1,217.73,12.77Zm32.1,0c3.22,0,3.7,4.76,3.7,7.72,0,3.77-.78,7.56-4.17,7.56-3.77,0-3.86-4.54-3.86-7.72C245.51,17.55,246.66,12.77,249.83,12.77ZM89.46,16.17a1.43,1.43,0,0,0-1.08.46.94.94,0,0,0-.31,1.08,3,3,0,0,1,.46,1.54c.1.94.48.12.62,1.23s-.44,1-.62,1.54-.08,2.62.77,2.47.6-2.2.46-3.09a3.38,3.38,0,0,1,.93-2.47,1.56,1.56,0,0,0-.46-2.47A1.83,1.83,0,0,0,89.46,16.17ZM69.24,17.25h.15c0,.09.14.33-.15.46,0,.11,0,.44-.46.62,0-.06-.14-.51.15-.62A.5.5,0,0,1,69.24,17.25Zm19,11.42c-.52.25-.46,1.08-.46,1.08v.62c0,.31.31.54.77.77a1.63,1.63,0,0,1,.62,1.39c0,.4,1,1.73,1.85,1.08s-.57-2.51-.93-2.93.13-1.69-1.08-2A1.24,1.24,0,0,0,88.23,28.67Zm.46,4.63c-1.21-.18-.93,1.7-.93,1.7s0,1.83,0,2.62,1,.94,1.54.93.47.51.31.77-.23.28-.31,1.39a2.38,2.38,0,0,1-1.39,1.85c-.38.22-.15,2.15-.15,3.24s-.73,1.4-.77,2a1.14,1.14,0,0,0,.93,1.08c.28,0,.7-.81.62-1.23s.83-1.65,1.54-2.16a1.59,1.59,0,0,0,.31-2c-.28-.5-.46-.29-.46-1.08s.75-1.12.77-1.7.71-1.1.77-1.85S90.41,37.28,90.08,37s.15-.78-.46-1.39-.43-.56-.46-1.39S88.69,33.3,88.69,33.3ZM123,44.72a4.83,4.83,0,0,1-1.23.15c-.83,0-1.87.5-3.4.62a3.24,3.24,0,0,0-2.16.77,4.89,4.89,0,0,1-2.47.77c-1.15,0-.61.48-2.16.62s-3.2,2-3.55,2.62-.07,2.33-.31,2.78a4,4,0,0,0-.46,1.85c0,.69.39,1.14.62,1.85a3.13,3.13,0,0,0,.93,1.7c.49.43.35.36.46,1.85a2,2,0,0,0,1.08,1.85s1.42-1.15,1.54-1.85a9.53,9.53,0,0,1,1.23-1.54c-.38-.67-1.14-2.42-.31-2.93s.46-1.85.46-1.85a3.13,3.13,0,0,1,0-1.39c.15-.9,1.55-1,2-1.08a32.48,32.48,0,0,1,3.7-.62c.85,0,.76,1.2.77,1.54,0,.62.23,1.7.31,2.93s-1,1-1.85,1.39-.56,1.51-.77,2c-.11.25-.89.44-1.54.31s-.33,2.88-.31,3.55c0,.48-.39.44-1.08.46a.75.75,0,0,0-.77.62,17.75,17.75,0,0,1-.62,1.85c-.17.28-1.22,2.44-1.39,2.62a31.75,31.75,0,0,0-2.62,2.47c0,.28-1.66,2.18-2.47,2.16s-1.4,2.58-1.85,2.62c-1.28.12-1.08,1.08-1.08,1.08s0,1.4,1.08,1.08a3.38,3.38,0,0,1,1.7-.15,10,10,0,0,0,3.09.62,10.24,10.24,0,0,1,2.93.62s1.77.49,2.32.15c.27-.16,2.3-.06,4.17-.15.91.2,2.81-.43,3.24-.46,1-.08.82-.46,1.23-.46s.73.4,1.39.46,1.1-.64,1.23-1.23,2.94-1,3.4-.93a1.17,1.17,0,0,0,1.39-.77c.2-.75-.52-1.07-1.08-1.54s-.52-.86-.62-1.7-.9-.89-1.23-.93-1.85.28-2,.62a.76.76,0,0,1-.46.46,1,1,0,0,1-.93-.31c-.16-.26-3,.56-4.32.31,0,.12-3.13.18-2.78.46s-.14,1.68-.77,1.7a1.25,1.25,0,0,1-1.23-1.23c0-.72-.38-.39-.77-.62-.75-.44-.23-1.19,0-1.7s1.13-.1,1.39-.62.37-.68.15-.77-.35,0-.62-.15a2.94,2.94,0,0,0,.93-.62c.46-.48.74-1.24,1.23-1.7.69-.62,1.78-2.83,2.47-3.4s1.61-2.76,1.85-2.93.38-.72.46-2,.4-1.59,1.39-1.85.65-1,.77-2.16a2.06,2.06,0,0,1,.46-1.08,6.68,6.68,0,0,0,.31-2.16c.65-.41.33-1.38.31-1.85s-.77-.71-1.08-1.85a13.65,13.65,0,0,1-.31-2A1.19,1.19,0,0,0,123,44.72Zm67.3,3.86V69.42c0,6.34,4.29,9.11,10,9.11s10-2.77,10-9.11V48.58H206V68.49c0,2.19,0,6.64-5.87,6.64-5.66,0-5.56-4.45-5.56-6.64V48.58Zm47.69,0V52.9h4.63V48.58Zm82.73,0V52.9h4.63V48.58Zm27,.31v4.78h5.25V48.89Zm9,0v4.78h5.25V48.89Zm-239.24.77c.09,0,.48-.07.46,0s0,.2-.46.46C117.4,50.12,117.31,50.17,117.4,49.66Zm220.26.93L333.8,52.9v4.78h-3.7v3.09h3.7V73.59c0,2.79,1.25,4.94,6.17,4.94a13.25,13.25,0,0,0,2.93-.31V75.28a7.23,7.23,0,0,1-2,.31c-3,0-3.24-2.17-3.24-4V60.77h5.71V57.69h-5.71Zm36.12,0-3.86,2.32v4.78h-3.55v3.09h3.55V73.59c0,2.79,1.25,4.94,6.17,4.94a14.67,14.67,0,0,0,3.09-.31V75.28a7.23,7.23,0,0,1-2,.31c-3,0-3.4-2.17-3.4-4V60.77h5.71V57.69h-5.71Zm-261.62.46c.15,0,.31,0,.31.15s0,.43-.46.62c-.06.14-.24.07-.62,0l-.15-.15c.06-.15.27,0,.62-.46C111.87,51.21,112,51.05,112.15,51.05ZM87,51.82c-.54-.14-.62.93-.62.93a1.12,1.12,0,0,0,.62.77c.53.25.69.3,1.08-.15s0-1.07-.15-1.23S87.52,52,87,51.82Zm-12.81.46c-1.06.18-1.08.77-1.08.77a12.11,12.11,0,0,0,.31,1.39c.06.17.89,1.32,1.23,1.39A2,2,0,0,1,76.5,58c0,1-.62,1.2-1.08,1.7,0,.07-.15,3.24-.15,3.24-1.12,1.51-.72,2.59-.77,4.48s-2,1.8-3.55,1.85a7.14,7.14,0,0,0-2.78,1.39c-1,.65-1.92,1.35-3.24.77a4.45,4.45,0,0,1-1.85-2.62,8.44,8.44,0,0,1,0-1.85A6.29,6.29,0,0,1,64,64.17s1-2.24,1.7-2.47a4.34,4.34,0,0,0,2-1.54,3.91,3.91,0,0,0,2.93-4.32,4.36,4.36,0,0,0-1.23-2.62c-.92-.7-4.44,1.41-5.71,2-.83.28-1.43.35-1.85,1.39-.56,1.38-1.54,1.62-1.7,2.62-.26,1.72-1.62,2.53-2.32,3.24s-1,1.2-.31,2.78-.88,4.11-1.39,4.94-1.3,2.63,2.78,6,5.3,3.14,8.49,2.93,6.1-5.14,7.41-5.56,2.11-1.52,2-3.4,1.49-2.64,1.7-4.32-.72-2.2-.77-2.78.2-.65.46-1.39A5.53,5.53,0,0,0,78,59.08c-.15-.79-.11-.65.31-1.7a5.07,5.07,0,0,0,0-2.62,2.78,2.78,0,0,0-2.62-2.47A5.73,5.73,0,0,0,74.18,52.29Zm47.69,1.23A1.06,1.06,0,0,1,123,54.6a1.09,1.09,0,1,1-2.16,0A1.06,1.06,0,0,1,121.88,53.52Zm-90.14.31c-1.55.31-1.54,2.32-1.54,2.32s-.77,1.2-.46,1.85.31.59.31,1.85.12.77.31,1.23a.89.89,0,0,1,0,.77,1.19,1.19,0,0,0-1.23,1.23c-.64.14-.62,1.23-.62,1.23s-.07,3,0,3.7-.62.39-.62,1.39.46,1.23.46,1.23v2a2.56,2.56,0,0,0,.31.93c.17.48.33.93.62.93.46,0,.31.62.31.62s0,1.36,0,2.47a2.66,2.66,0,0,0,2.78,2.93c1.81,0,1.39-3.13,1.39-3.7s.87-.91.77-1.7v-4s.19-2.32-.77-2.32A2.49,2.49,0,0,0,32,69.88h-.77s-.11-2.09.77-2.16,1.51-.08,1.7-1.23a4.44,4.44,0,0,0-1.08-3.24c-.77-1.15-.15-1.7-.15-1.7a3.91,3.91,0,0,0,1.85-2.78,5.43,5.43,0,0,0-.62-3.4c-.27-.84-.53-1.46-1.23-1.54A2.56,2.56,0,0,0,31.74,53.83Zm55.72,1.7a2.12,2.12,0,0,0-1.54,1.85l-.15.31c0,.14.26.33,1.23.46s-.45,1.8.62,1.7.52.8,1.08.46a1.78,1.78,0,0,0,.62-1.23S88.91,55.15,87.46,55.53Zm139.07,1.7c-4.16,0-5.8,3.07-6.48,4.78l-.15-4.32H216V78.06h3.86V69.42c0-4.07,2.23-8.33,5.4-8.33,2.78,0,2.78,2.09,2.78,5.87V78.06h3.86V64C231.93,61.49,231.24,57.22,226.53,57.22Zm49.7,0c-2.61,0-8.33,1-8.33,9.72,0,8,3.86,11.58,10,11.58a19.32,19.32,0,0,0,5.09-.62V74.82a11.09,11.09,0,0,1-3.86.77c-5.57,0-7.41-5.29-7.41-9.11h11.73V65.41C283.48,60.61,281.2,57.22,276.23,57.22Zm23.15,0a6.36,6.36,0,0,0-6.17,4.63l-.15-4.17h-3.86V78.06h3.86V69.42c0-6.26,2.86-8,6.33-8Zm10.65,0c-4.24,0-7.25,2-7.25,5.71,0,3,2.17,4.4,4,5.56l2,1.23c1.37.9,3.24,1.7,3.24,3.24,0,2.1-2.33,2.62-4.17,2.62a14.94,14.94,0,0,1-5.09-1.23v3.4a18.1,18.1,0,0,0,5.4.77c4.59,0,7.72-1.89,7.72-6.17,0-3.39-2.64-4.69-4.78-6l-1.54-.93c-1.33-.82-2.93-1.51-2.93-2.93s1.57-2.16,3.24-2.16a12.29,12.29,0,0,1,4.78,1.08V58A21.09,21.09,0,0,0,310,57.22Zm45.07,0c-5.7,0-7.72,2.92-7.72,6.17h4c0-1.63,1.09-3.09,3.4-3.09a2.74,2.74,0,0,1,3.09,2.47v3.7c-5.19,0-11.11,1.23-11.11,6.64,0,3.17,1.9,5.4,5.71,5.4a5.57,5.57,0,0,0,5.25-2.93l.15,2.47h3.86V64.17C361.74,62.33,361.79,57.22,355.1,57.22Zm-116.84.46V78.06h3.86V57.69Zm8.64,0,7.72,20.37h3.86l7.1-20.37h-4.32l-4.78,14.82-5.4-14.82Zm74.09,0V78.06h3.86V57.69Zm-46.15,2.62a5.15,5.15,0,0,1,1.08,0,3.44,3.44,0,0,1,3.7,3.55H271.9A3.89,3.89,0,0,1,274.84,60.31Zm-157.28,4c.22,0,.24,0,.46.31,0,.09.06.79-.31.62a.9.9,0,0,0-.31-.46S117.34,64.31,117.55,64.32Zm-30.72.62c-.51.12-.7.58-.93,1.08a1.79,1.79,0,0,0-.62,1.54,1.58,1.58,0,0,0,.62,1.08,2,2,0,0,1,.77,1.7c-.06.62-.76.85-1.08,1.54a15.93,15.93,0,0,1-1.23,2.32c-.56.82-.41,1.15-.46,2.16s0,2.17,0,2.62c0,.91.1.78.62,1.23s.15,1.7.15,1.7-.09,2.59-.15,4,.3,1.24.77,1.85,1,.85,1.54.62.48-1.53.15-2-.3-3.33-.15-4.94.23-1,.77-2-.07-2.93-.46-3.55a3,3,0,0,1-.46-1.08,5.16,5.16,0,0,0,.62-2.62c1-.82.93-1.54.93-1.54.1-2.73.76-.24.46-2.93-.1-.93-.82-.91-.93-1.85C87.36,64.78,86.84,64.94,86.84,64.94Zm270.27,4h.77v1.23c0,2.4-2,5.4-4.63,5.4A2.47,2.47,0,0,1,350.93,73C350.93,70.36,354.06,69,357.11,69ZM116.94,89.18c-1.06.09-1.56.81-1.54,1.23s-2.61,3.22-3.09,3.4a8.43,8.43,0,0,0-.93.93c-.53.61-2.61,1.83-2.78,2.78,0,.28-.93,3.09-.93,3.09-.09.58-2,3-2.32,3.55s-.93,2.57-2.16,2.78a4.32,4.32,0,0,0-2.32,1.54c-.35.33-.12,2.46-1.08,3.4-.71.69-.62,1.35-.62,2.32a1.55,1.55,0,0,0,1.39,1.7c.77,0,1.11-.66,1.54-.77s.93,1.09,1.08,1.54,2.78-.28,3.4-.62a10,10,0,0,1,2.78-.77,2.69,2.69,0,0,1,1.39.31c.49.42.75,1.57,1.54,2s.6.48.62.93-1,.15-1.39.15-.54,2-.77,2.47c-.15.34-.94,1.66-1.39,1.7s-.33,2.76-.31,2.78c.5.4,2.94,2.83,3.7,2.78s1.64,1.14,2.16,1.08.46-.62.46-.62a15.79,15.79,0,0,1,.15-2.62,5.31,5.31,0,0,0,.62-1.85c0-.62.47-.9.62-1.23s0-4.28,0-5.25.79-1.47.77-2,1-.73,1.39-.46.38.52.62.77a8.25,8.25,0,0,0,2-.15c.55-.28,3.33-.38,3.55-.77s.09-.39,1.08-.46,1.09-3.62.93-4.32-2.18-.46-2.62-.46-.53.33-.77.46.36,1.22-.31,1.23-.48-.31-.46-.77a1,1,0,0,0-.46-.93,1.31,1.31,0,0,0-1.23.15c-.06.15-.39.33-1.08.31s-.43-.48-.46-.77a2.71,2.71,0,0,1,.62-1.85c.49-.34,0-1.7.15-2.78a5.52,5.52,0,0,1,.62-1.85c.24-.69.3-1.19.62-1.39.62-.4.77-1.85.77-1.85s.22-1.77-.15-2-.46-.35-.46-.77.36-.28.31-1.23-1.22-.85-1.7-.93-.51-.38-1.39-.93c-.56-.35-1-1.73-.62-2,.86-.62,1.32-2.07.93-2.32a3,3,0,0,0-1.08-.31A4.12,4.12,0,0,0,116.94,89.18Zm-31.18.77a1.52,1.52,0,0,0-.93,1.39l.15.31c.36.14.23,1.07.93.93s1-1.12,1.23-1.85S86.67,89.67,85.76,89.95Zm30.72,4.32c.2.06.27.31.31.77.07.93-.14.68-.15,2s0,4.32.31,4.63-.09,2.92-.31,3.09a5.63,5.63,0,0,0-1.54,2.47c-.06.84-.15,2.82-1.08,3.24s-.52.44-1.23.46-.6-.25-1.7-.15S110,110,108.6,110s-.88.36-1.54.31-.58-1.12-.15-1.08,1.39-1.64,1.85-1.85,1.37-3,2-3.4,2.16-4.07,2.16-4.78-.07-1.43.15-1.54a1.2,1.2,0,0,0,.62-.77,5.5,5.5,0,0,1,.46-.93,5.31,5.31,0,0,1,.93-.62c.43-.2.2-.87.62-.93C115.91,94.4,116.28,94.21,116.47,94.27Zm74.09,1.85V125.6h4.32V112h11.58V125.6h4.32V96.12h-4.32v12.35H194.88V96.12Zm-106.5,2c-.27.28-.15,1-.15,1.08s.15.32.31.62.94.86.31,1.23-.59.63-.62.93a1.17,1.17,0,0,1-.77,1.08.78.78,0,0,0-.46,1.08,2.37,2.37,0,0,1,.46,1.39c.06.82.3,1.28.77,1.23s.79-1.15.77-2.16.65-1.32,1.08-2a2.09,2.09,0,0,0-.31-2.16c-.36-.48-.07-.24-.15-1.23s-.12-1-.77-1.08C84.36,98.1,84.15,98,84.06,98.13Zm-15.13.46a3.43,3.43,0,0,0-1.08.31c-1,.53,0,1.71-1.85,1.85s-.87-.7-2.32-.62c-1.28.07-1.3.48-2,1.54s-2.48,1.48-3.7,1.54c-1,.06-2.22,1.56-2.78,2.16A6.82,6.82,0,0,0,54,108.16a14.72,14.72,0,0,0-.15,1.7,2.55,2.55,0,0,0,0,.62,34.06,34.06,0,0,0,.77,3.55v1.54A2.3,2.3,0,0,0,53.19,117,8.91,8.91,0,0,0,53,118a6.16,6.16,0,0,0,.15,2,14.79,14.79,0,0,1,1.08,2c.36.79,1.26.81,2.32.77,2-.08,2.73,1.61,3.09,2s.77.59,1.08.15.86-.54,1.85-.62,1.58-.16,2-1.39a3.19,3.19,0,0,1,1.7-1.7,5.45,5.45,0,0,0,3.55-2.93c.45-1,.86-1.36,1.08-2,.1-.48.5-.54.46-1.08-.18-2.49.77-3.4.77-3.4v-5.09a16,16,0,0,0,.46-1.7,4,4,0,0,0,.46-2.32s-.18-1.79,0-1.85c.36-.12.49-.36.46-1.08,0-.56-.59-.54-1.7-.46S71,98.8,70,98.59A3.38,3.38,0,0,0,68.93,98.59ZM6,99.21a.72.72,0,0,0-.77.46,4.34,4.34,0,0,1-1.08,1.39l-.77.93c-.38.45.34,1.55-.46,2.47s-.2,2.14-.46,3.86-.59,1.44.15,3.4.63,2.22-.31,4.32S.9,119.19,1,119.58a4.85,4.85,0,0,1,.46,1.54c.09,1,0,2.19,0,3.24,0,2,0,2.61,1.39,3.86.25.22.7,0,1.08.15a7.38,7.38,0,0,1,1.39.62c2.74-.49,6.15-4.49,6.17-5.71,0-1.84-1.69-1.85-2.93-1.85s-1.4.12-1.7-1.23.9-2.3,1.23-3.09-.44-1.48-1.08-1.7S6.73,114,6.73,114a6.42,6.42,0,0,0,.93-4c-.19-2.48.59-2.9.93-2.93s1-2.8,0-3.55a4.82,4.82,0,0,1-1.7-3.7C6.85,99.41,6.35,99.22,6,99.21Zm25,2.16c-1.73,0-6.64,1.74-6.95,3.24s-.39,1.94-1.85,2.32-1.39,2.16-1.39,2.16l-.31.77c-.45.38-.43.72-.46,1.85s-.46,1.23-.46,1.23a13.67,13.67,0,0,1-.31,2.62,4,4,0,0,1-.62,1.23c-.15.25,0,3,.31,3.09s.55.64.77,1.7a1.55,1.55,0,0,0,1.08,1.23,2.92,2.92,0,0,1,2,1.08c.68,1,2.25.81,4,.77s2.25-.42,2.78-1.54,1.59-1,3.4-.93c1.4,0,2.36-.91,3.24-2.78.19-.41,0-.57.31-1.08.6-.92,1.57-1.17,2-2,0,0-.21-3.17-.15-3.24.61-.78,1-3.49,1.54-4s.91-2.48.46-2.78-.37-2.18-.15-2.47c.52-.7.57-2-1.23-2.32s-2.8,1.12-3.86,1.08S33.32,101.37,31,101.37Zm-1.54,3.24a2,2,0,0,1,2,.31c.94,1,.4.85,2,1.7s1.44.77,1.39,2.32.41,5.61-2.47,7.56c-1.84,1.25-2.94,1.56-4.63.93-1.38-.52-2.33-.69-2.62-1.08s-2-1.32-1.7-2.47,1-.72,1.08-1.39.06-2.11.93-2.47.77-.46.77-.46S28,108.9,28.34,108s-.14-2.51.46-3.09A1.6,1.6,0,0,1,29.42,104.61Zm195.41.15c-5.7,0-7.72,2.91-7.72,6.17h4a3.15,3.15,0,0,1,3.4-3.24,2.86,2.86,0,0,1,3.09,2.62v3.55c-5.18,0-11.11,1.39-11.11,6.79,0,3.17,1.9,5.4,5.71,5.4a5.56,5.56,0,0,0,5.25-2.93l.15,2.47h3.86v-14C231.46,109.71,231.51,104.76,224.83,104.76Zm23.62,0c-4.16,0-5.8,3.07-6.48,4.78v-4.32H238.1V125.6H242V117c0-4.07,2.24-8.33,5.4-8.33,2.79,0,2.78,2.09,2.78,5.87V125.6H254V111.4C254,108.87,253.16,104.76,248.44,104.76Zm23.15,0c-4.16,0-5.8,3.07-6.48,4.78l-.15-4.32H261.1V125.6H265V117c0-4.07,2.23-8.33,5.4-8.33,2.78,0,2.78,2.09,2.78,5.87V125.6H277V111.4C277,108.87,276.31,104.76,271.6,104.76Zm19.76,0c-6.17,0-9,4.14-9,10.65s2.78,10.65,9,10.65,9-4.22,9-10.65S297.48,104.76,291.35,104.76Zm40.59,0c-2.61,0-8.33,1-8.33,9.72,0,8,4,11.58,10.19,11.58a19.35,19.35,0,0,0,5.09-.62v-3.09a11,11,0,0,1-3.86.77c-5.57,0-7.56-5.45-7.56-9.26h11.88v-.93C339.36,108.15,336.92,104.76,331.95,104.76Zm23.31,0a6.57,6.57,0,0,0-6.33,4.63v-4.17h-3.86V125.6h3.86V117c0-6.26,2.86-8,6.33-8Zm-53.1.46,7.72,20.37h4l7.1-20.37h-4.32L311.88,120l-5.4-14.82ZM67.08,106.77c.59.09,1,.25,1.23.62a3.31,3.31,0,0,1,0,2.16,3.68,3.68,0,0,1-1.08,1.39c-.48.32-.08,1.7-.93,2.93a3.33,3.33,0,0,1-1.7,1.08,7.53,7.53,0,0,0-1.39.77c-.89.51-.58.38-1.85.31a4.37,4.37,0,0,1-2.78-1.7,6,6,0,0,1-.93-2.47c.25-1.7,1.38-1.91,1.85-1.85s4,0,4.48-.62.46-.77.46-.77S65.14,106.47,67.08,106.77Zm224.27.93c4.16,0,4.78,4.41,4.78,7.72s-.63,7.72-4.78,7.72-4.78-4.46-4.78-7.72S287.11,107.7,291.35,107.7Zm40.44,0a3.55,3.55,0,0,1,3.7,3.7h-7.87A4.09,4.09,0,0,1,331.79,107.7Zm-249.89.77c-.85-.16-1.08,1.39-1.08,1.39a2.63,2.63,0,0,0-.15.46c0,.2.29,1.54.93,1.54s1.1-1.18,1.23-1.85A1.18,1.18,0,0,0,81.9,108.47Zm144.94,8h.77v1.08c0,2.4-2,5.56-4.63,5.56a2.47,2.47,0,0,1-2.32-2.62C220.66,117.9,223.79,116.5,226.83,116.5Zm-169,2.32c.07,0,.2,0,.46.46,0,0,0,.09-.46,0C57.81,119.19,57.74,118.8,57.82,118.81Zm25.78.46a3,3,0,0,0-.93.31c-.55.26.15,1.08.15,1.08s1.63,2,2.78,1.39-.41-2-1.08-2.47A1.37,1.37,0,0,0,83.6,119.27Zm29.79.15.15.15c-.1,0-.1.1-.15.15C113.4,119.64,113.37,119.43,113.39,119.43Zm-29.94,5.87c-.85-.16-1.08,1.23-1.08,1.23s-.11.42-.15.62.29,1.54.93,1.54,1.09-1.18,1.23-1.85A1.18,1.18,0,0,0,83.44,125.29Z" style="fill:#fff;stroke:#fff;stroke-miterlimit:10;stroke-width:2px"/></svg>